<svg width="105" height="32" viewBox="0 0 105 32" fill="none" xmlns="http://www.w3.org/2000/svg">
<rect width="32" height="32" rx="16" fill="white"/>
<path d="M12.2908 23H8.99536L14.0167 8.45455H17.9797L22.9939 23H19.6985L16.055 11.7784H15.9414L12.2908 23ZM12.0848 17.2827H19.8689V19.6832H12.0848V17.2827Z" fill="#1A1A1A"/>
<path d="M43.7713 23H40.4759L45.4972 8.45455H49.4602L54.4744 23H51.179L47.5355 11.7784H47.4219L43.7713 23ZM43.5653 17.2827H51.3494V19.6832H43.5653V17.2827ZM60.0753 27.3182C59.0952 27.3182 58.2547 27.1832 57.554 26.9134C56.858 26.6482 56.304 26.286 55.892 25.8267C55.4801 25.3674 55.2126 24.8513 55.0895 24.2784L57.8878 23.902C57.973 24.1198 58.108 24.3234 58.2926 24.5128C58.4773 24.7022 58.7211 24.8537 59.0241 24.9673C59.3319 25.0857 59.706 25.1449 60.1463 25.1449C60.8045 25.1449 61.3466 24.9839 61.7727 24.6619C62.2036 24.3447 62.419 23.812 62.419 23.0639V21.0682H62.2912C62.1586 21.3712 61.9598 21.6577 61.6946 21.9276C61.4295 22.1974 61.0885 22.4176 60.6719 22.5881C60.2552 22.7585 59.758 22.8438 59.1804 22.8438C58.3613 22.8438 57.6155 22.6544 56.9432 22.2756C56.2756 21.892 55.7429 21.3073 55.3452 20.5213C54.9522 19.7306 54.7557 18.7315 54.7557 17.5241C54.7557 16.2884 54.9569 15.2562 55.3594 14.4276C55.7618 13.599 56.2969 12.9787 56.9645 12.5668C57.6368 12.1548 58.3731 11.9489 59.1733 11.9489C59.7841 11.9489 60.2955 12.053 60.7074 12.2614C61.1193 12.465 61.4508 12.7206 61.7017 13.0284C61.9574 13.3314 62.1539 13.6297 62.2912 13.9233H62.4048V12.0909H65.4091V23.1065C65.4091 24.0346 65.1818 24.8111 64.7273 25.4361C64.2727 26.0611 63.643 26.5298 62.8381 26.8423C62.0379 27.1596 61.117 27.3182 60.0753 27.3182ZM60.1392 20.571C60.6269 20.571 61.0388 20.4503 61.375 20.2088C61.7159 19.9626 61.9763 19.6122 62.1562 19.1577C62.3409 18.6984 62.4332 18.1491 62.4332 17.5099C62.4332 16.8707 62.3433 16.3168 62.1634 15.848C61.9834 15.3745 61.723 15.0076 61.3821 14.7472C61.0412 14.4867 60.6269 14.3565 60.1392 14.3565C59.642 14.3565 59.223 14.4915 58.8821 14.7614C58.5412 15.0265 58.2831 15.3958 58.108 15.8693C57.9328 16.3428 57.8452 16.8897 57.8452 17.5099C57.8452 18.1397 57.9328 18.6842 58.108 19.1435C58.2879 19.598 58.5459 19.9508 58.8821 20.2017C59.223 20.4479 59.642 20.571 60.1392 20.571ZM67.3168 23V12.0909H70.3423V23H67.3168ZM68.8366 10.6847C68.3868 10.6847 68.0009 10.5355 67.679 10.2372C67.3617 9.93419 67.2031 9.57197 67.2031 9.15057C67.2031 8.7339 67.3617 8.37642 67.679 8.07812C68.0009 7.77509 68.3868 7.62358 68.8366 7.62358C69.2865 7.62358 69.67 7.77509 69.9872 8.07812C70.3092 8.37642 70.4702 8.7339 70.4702 9.15057C70.4702 9.57197 70.3092 9.93419 69.9872 10.2372C69.67 10.5355 69.2865 10.6847 68.8366 10.6847ZM75.2915 8.45455V23H72.266V8.45455H75.2915ZM77.2152 23V12.0909H80.2408V23H77.2152ZM78.7351 10.6847C78.2853 10.6847 77.8994 10.5355 77.5774 10.2372C77.2602 9.93419 77.1016 9.57197 77.1016 9.15057C77.1016 8.7339 77.2602 8.37642 77.5774 8.07812C77.8994 7.77509 78.2853 7.62358 78.7351 7.62358C79.1849 7.62358 79.5684 7.77509 79.8857 8.07812C80.2076 8.37642 80.3686 8.7339 80.3686 9.15057C80.3686 9.57197 80.2076 9.93419 79.8857 10.2372C79.5684 10.5355 79.1849 10.6847 78.7351 10.6847ZM82.1076 23V21.196L87.4485 14.5838V14.5057H82.2923V12.0909H91.092V14.0582L86.0778 20.5071V20.5852H91.2766V23H82.1076ZM96.201 23.206C95.505 23.206 94.8847 23.0852 94.3402 22.8438C93.7957 22.5975 93.3648 22.2353 93.0476 21.7571C92.7351 21.2741 92.5788 20.6728 92.5788 19.9531C92.5788 19.3471 92.6901 18.8381 92.9126 18.4261C93.1352 18.0142 93.4382 17.6828 93.8217 17.4318C94.2053 17.1809 94.6409 16.9915 95.1286 16.8636C95.621 16.7358 96.1371 16.6458 96.6768 16.5938C97.3113 16.5275 97.8227 16.4659 98.2109 16.4091C98.5992 16.3475 98.8809 16.2576 99.0561 16.1392C99.2313 16.0208 99.3189 15.8456 99.3189 15.6136V15.571C99.3189 15.1212 99.1768 14.7732 98.8928 14.527C98.6134 14.2808 98.2157 14.1577 97.6996 14.1577C97.1551 14.1577 96.7218 14.2784 96.3999 14.5199C96.0779 14.7566 95.8648 15.0549 95.7607 15.4148L92.9624 15.1875C93.1044 14.5246 93.3838 13.9517 93.8004 13.4688C94.2171 12.9811 94.7545 12.607 95.4126 12.3466C96.0755 12.0814 96.8426 11.9489 97.7138 11.9489C98.3198 11.9489 98.8999 12.0199 99.4538 12.1619C100.013 12.304 100.507 12.5241 100.938 12.8224C101.374 13.1207 101.717 13.5043 101.968 13.973C102.219 14.437 102.344 14.9934 102.344 15.642V23H99.4751V21.4872H99.3899C99.2147 21.8281 98.9804 22.1288 98.6868 22.3892C98.3932 22.6449 98.0405 22.8461 97.6286 22.9929C97.2166 23.1349 96.7408 23.206 96.201 23.206ZM97.0675 21.1179C97.5125 21.1179 97.9055 21.0303 98.2464 20.8551C98.5874 20.6752 98.8549 20.4337 99.049 20.1307C99.2431 19.8277 99.3402 19.4844 99.3402 19.1009V17.9432C99.2455 18.0047 99.1153 18.0616 98.9496 18.1136C98.7886 18.161 98.6063 18.206 98.4027 18.2486C98.1991 18.2865 97.9955 18.322 97.7919 18.3551C97.5883 18.3835 97.4036 18.4096 97.2379 18.4332C96.8828 18.4853 96.5727 18.5682 96.3075 18.6818C96.0424 18.7955 95.8364 18.9493 95.6896 19.1435C95.5429 19.3329 95.4695 19.5696 95.4695 19.8537C95.4695 20.2656 95.6186 20.5805 95.9169 20.7983C96.2199 21.0114 96.6035 21.1179 97.0675 21.1179Z" fill="white"/>
</svg>
